<?xml version="1.0" standalone="no"?>
<!DOCTYPE svg PUBLIC "-//W3C//DTD SVG 20010904//EN"
 "http://www.w3.org/TR/2001/REC-SVG-20010904/DTD/svg10.dtd">
<svg version="1.0" xmlns="http://www.w3.org/2000/svg"
 width="550.000000pt" height="550.000000pt" viewBox="0 0 550.000000 550.000000"
 preserveAspectRatio="xMidYMid meet">

<g transform="translate(0.000000,550.000000) scale(0.100000,-0.100000)">
<path d="M2515 5300 c-486 -49 -922 -219 -1313 -512 -124 -93 -341 -304 -445
-433 -538 -667 -706 -1566 -445 -2383 94 -296 250 -585 449 -831 100 -125 319
-337 441 -429 259 -194 561 -344 857 -427 773 -214 1594 -58 2236 424 121 92
319 282 427 411 174 208 346 509 437 765 171 483 196 999 71 1495 -87 347
-267 704 -495 985 -99 122 -318 334 -440 426 -362 271 -777 441 -1225 499
-115 15 -444 21 -555 10z m431 -421 c756 -73 1407 -529 1735 -1214 164 -343
235 -738 198 -1111 -73 -756 -529 -1407 -1214 -1735 -586 -280 -1262 -276
-1850 11 -676 331 -1121 974 -1194 1724 -67 683 221 1387 746 1824 453 377
1016 556 1579 501z"/>
<path d="M2268 4020 c-53 -16 -98 -52 -126 -98 l-27 -47 -3 -457 -3 -458 -127
0 c-118 0 -132 -2 -181 -26 -34 -17 -62 -41 -79 -67 -23 -35 -27 -51 -27 -117
0 -66 4 -82 27 -117 17 -26 45 -50 79 -67 49 -24 63 -26 181 -26 l128 0 0
-110 0 -110 -128 0 c-117 0 -132 -2 -179 -25 -32 -16 -61 -41 -79 -67 -26 -37
-29 -50 -29 -119 0 -70 3 -81 30 -120 50 -70 88 -83 247 -87 l136 -3 4 -137
c3 -129 5 -140 31 -184 68 -117 233 -140 325 -45 52 54 62 91 62 237 l0 130
238 0 c235 0 239 0 289 25 65 33 104 88 111 155 7 74 -5 117 -46 162 -66 74
-85 78 -354 78 l-238 0 0 110 0 110 305 0 c332 0 402 8 520 57 194 81 354 255
422 458 25 73 27 94 27 230 0 135 -2 158 -26 228 -80 236 -266 415 -510 489
-70 21 -91 22 -523 24 -247 2 -462 -1 -477 -6z m933 -441 c116 -55 181 -152
187 -279 7 -135 -61 -250 -183 -310 -49 -25 -54 -25 -362 -28 l-313 -3 0 326
0 326 308 -3 307 -3 56 -26z"/>
</g>
</svg>
